<mxfile host="65bd71144e" scale="1" border="0" disableSvgWarning="true">
    <diagram id="KXcY648etnp6g9j1VARG" name="第 1 页">
        <mxGraphModel dx="1377" dy="503" grid="1" gridSize="10" guides="1" tooltips="1" connect="1" arrows="1" fold="1" page="0" pageScale="1" pageWidth="827" pageHeight="1169" math="0" shadow="0">
            <root>
                <mxCell id="0"/>
                <mxCell id="1" parent="0"/>
                <mxCell id="-oE4xWbNMbVdAoyDmLNe-22" value="" style="edgeStyle=orthogonalEdgeStyle;rounded=0;orthogonalLoop=1;jettySize=auto;exitX=0.5;exitY=1;exitDx=0;exitDy=0;entryX=0.5;entryY=0;entryDx=0;entryDy=0;" parent="1" source="-oE4xWbNMbVdAoyDmLNe-3" target="-oE4xWbNMbVdAoyDmLNe-18" edge="1">
                    <mxGeometry relative="1" as="geometry"/>
                </mxCell>
                <mxCell id="g04I9ooyGlMb0G9ya7TG-7" value="" style="edgeStyle=orthogonalEdgeStyle;rounded=0;orthogonalLoop=1;jettySize=auto;exitX=1;exitY=0.5;exitDx=0;exitDy=0;entryX=0.5;entryY=0;entryDx=0;entryDy=0;" parent="1" source="-oE4xWbNMbVdAoyDmLNe-3" target="-oE4xWbNMbVdAoyDmLNe-12" edge="1">
                    <mxGeometry relative="1" as="geometry"/>
                </mxCell>
                <mxCell id="-oE4xWbNMbVdAoyDmLNe-3" value="判断文档&#10;是否有更新" style="rhombus;" parent="1" vertex="1">
                    <mxGeometry x="-245" y="470" width="120" height="80" as="geometry"/>
                </mxCell>
                <mxCell id="-oE4xWbNMbVdAoyDmLNe-27" value="" style="edgeStyle=orthogonalEdgeStyle;rounded=0;orthogonalLoop=1;jettySize=auto;exitX=0.5;exitY=1;exitDx=0;exitDy=0;entryX=0.5;entryY=0;entryDx=0;entryDy=0;" parent="1" source="-oE4xWbNMbVdAoyDmLNe-4" target="-oE4xWbNMbVdAoyDmLNe-20" edge="1">
                    <mxGeometry relative="1" as="geometry"/>
                </mxCell>
                <mxCell id="-oE4xWbNMbVdAoyDmLNe-4" value="用pdf，进行打包&#10;生成zip包" style="rounded=1;" parent="1" vertex="1">
                    <mxGeometry x="-245" y="670" width="120" height="30" as="geometry"/>
                </mxCell>
                <mxCell id="-oE4xWbNMbVdAoyDmLNe-6" value="没有更新" style="text;strokeColor=none;fillColor=none;align=center;verticalAlign=middle;rounded=0;" parent="1" vertex="1">
                    <mxGeometry x="-260" y="550" width="70" height="20" as="geometry"/>
                </mxCell>
                <mxCell id="g04I9ooyGlMb0G9ya7TG-1" value="" style="edgeStyle=orthogonalEdgeStyle;rounded=0;orthogonalLoop=1;jettySize=auto;exitX=0.5;exitY=1;exitDx=0;exitDy=0;entryX=0.494;entryY=0.025;entryDx=0;entryDy=0;entryPerimeter=0;" parent="1" source="-oE4xWbNMbVdAoyDmLNe-8" target="-oE4xWbNMbVdAoyDmLNe-14" edge="1">
                    <mxGeometry relative="1" as="geometry"/>
                </mxCell>
                <mxCell id="-oE4xWbNMbVdAoyDmLNe-8" value="clone nuclei_doc仓库" style="rounded=1;" parent="1" vertex="1">
                    <mxGeometry x="-245" y="150" width="120" height="20" as="geometry"/>
                </mxCell>
                <mxCell id="g04I9ooyGlMb0G9ya7TG-5" value="" style="edgeStyle=orthogonalEdgeStyle;rounded=0;orthogonalLoop=1;jettySize=auto;exitX=0.5;exitY=1;exitDx=0;exitDy=0;entryX=0.5;entryY=0;entryDx=0;entryDy=0;" parent="1" source="-oE4xWbNMbVdAoyDmLNe-9" target="-oE4xWbNMbVdAoyDmLNe-10" edge="1">
                    <mxGeometry relative="1" as="geometry"/>
                </mxCell>
                <mxCell id="-oE4xWbNMbVdAoyDmLNe-9" value="从wiki上下载&#10;最新docx文档" style="rounded=1;" parent="1" vertex="1">
                    <mxGeometry x="-245" y="340" width="120" height="30" as="geometry"/>
                </mxCell>
                <mxCell id="g04I9ooyGlMb0G9ya7TG-6" value="" style="edgeStyle=orthogonalEdgeStyle;rounded=0;orthogonalLoop=1;jettySize=auto;exitX=0.5;exitY=1;exitDx=0;exitDy=0;entryX=0.5;entryY=0;entryDx=0;entryDy=0;" parent="1" source="-oE4xWbNMbVdAoyDmLNe-10" target="-oE4xWbNMbVdAoyDmLNe-3" edge="1">
                    <mxGeometry relative="1" as="geometry"/>
                </mxCell>
                <mxCell id="-oE4xWbNMbVdAoyDmLNe-10" value="将docx文档，&#10;转换为pdf，&#10;保存在pdf目录下" style="rounded=1;" parent="1" vertex="1">
                    <mxGeometry x="-245" y="390" width="120" height="50" as="geometry"/>
                </mxCell>
                <mxCell id="-oE4xWbNMbVdAoyDmLNe-28" value="" style="edgeStyle=orthogonalEdgeStyle;rounded=0;orthogonalLoop=1;jettySize=auto;exitX=0.5;exitY=1;exitDx=0;exitDy=0;entryX=1;entryY=0.561;entryDx=0;entryDy=0;entryPerimeter=0;" parent="1" source="-oE4xWbNMbVdAoyDmLNe-12" target="-oE4xWbNMbVdAoyDmLNe-18" edge="1">
                    <mxGeometry relative="1" as="geometry"/>
                </mxCell>
                <mxCell id="-oE4xWbNMbVdAoyDmLNe-12" value="git操作&#10;add commit" style="rounded=1;" parent="1" vertex="1">
                    <mxGeometry x="-85" y="530" width="120" height="40" as="geometry"/>
                </mxCell>
                <mxCell id="-oE4xWbNMbVdAoyDmLNe-16" value="" style="edgeStyle=orthogonalEdgeStyle;rounded=0;orthogonalLoop=1;jettySize=auto;exitX=1;exitY=0.5;exitDx=0;exitDy=0;entryX=0;entryY=0.5;entryDx=0;entryDy=0;" parent="1" source="-oE4xWbNMbVdAoyDmLNe-13" target="-oE4xWbNMbVdAoyDmLNe-15" edge="1">
                    <mxGeometry relative="1" as="geometry"/>
                </mxCell>
                <mxCell id="g04I9ooyGlMb0G9ya7TG-4" value="" style="edgeStyle=orthogonalEdgeStyle;rounded=0;orthogonalLoop=1;jettySize=auto;exitX=0.5;exitY=1;exitDx=0;exitDy=0;entryX=0.5;entryY=0;entryDx=0;entryDy=0;" parent="1" source="-oE4xWbNMbVdAoyDmLNe-13" target="-oE4xWbNMbVdAoyDmLNe-9" edge="1">
                    <mxGeometry relative="1" as="geometry"/>
                </mxCell>
                <mxCell id="-oE4xWbNMbVdAoyDmLNe-13" value="判断新的tag名字，&#10;仓库是否有该tag" style="rhombus;" parent="1" vertex="1">
                    <mxGeometry x="-270" y="260" width="170" height="60" as="geometry"/>
                </mxCell>
                <mxCell id="g04I9ooyGlMb0G9ya7TG-3" value="" style="edgeStyle=orthogonalEdgeStyle;rounded=0;orthogonalLoop=1;jettySize=auto;exitX=0.5;exitY=1;exitDx=0;exitDy=0;entryX=0.5;entryY=0;entryDx=0;entryDy=0;" parent="1" source="-oE4xWbNMbVdAoyDmLNe-14" target="-oE4xWbNMbVdAoyDmLNe-13" edge="1">
                    <mxGeometry relative="1" as="geometry"/>
                </mxCell>
                <mxCell id="-oE4xWbNMbVdAoyDmLNe-14" value="根据传入core类型和&#10;传入版本，生成&#10;新的tag名字" style="rounded=1;" parent="1" vertex="1">
                    <mxGeometry x="-245" y="190" width="120" height="50" as="geometry"/>
                </mxCell>
                <mxCell id="-oE4xWbNMbVdAoyDmLNe-15" value="报错，退出" style="rounded=1;" parent="1" vertex="1">
                    <mxGeometry x="-30" y="272.5" width="120" height="35" as="geometry"/>
                </mxCell>
                <mxCell id="-oE4xWbNMbVdAoyDmLNe-17" value="有" style="text;strokeColor=none;fillColor=none;align=center;verticalAlign=middle;rounded=0;" parent="1" vertex="1">
                    <mxGeometry x="-90" y="270" width="40" height="20" as="geometry"/>
                </mxCell>
                <mxCell id="g04I9ooyGlMb0G9ya7TG-13" value="" style="edgeStyle=orthogonalEdgeStyle;rounded=0;orthogonalLoop=1;jettySize=auto;exitX=0.5;exitY=1;exitDx=0;exitDy=0;entryX=0.5;entryY=0;entryDx=0;entryDy=0;" parent="1" source="-oE4xWbNMbVdAoyDmLNe-18" target="g04I9ooyGlMb0G9ya7TG-10" edge="1">
                    <mxGeometry relative="1" as="geometry"/>
                </mxCell>
                <mxCell id="-oE4xWbNMbVdAoyDmLNe-18" value="打tag" style="rounded=1;" parent="1" vertex="1">
                    <mxGeometry x="-245" y="580" width="120" height="20" as="geometry"/>
                </mxCell>
                <mxCell id="-oE4xWbNMbVdAoyDmLNe-19" value="有更新" style="text;strokeColor=none;fillColor=none;align=center;verticalAlign=middle;rounded=0;" parent="1" vertex="1">
                    <mxGeometry x="-85" y="470" width="70" height="20" as="geometry"/>
                </mxCell>
                <mxCell id="-oE4xWbNMbVdAoyDmLNe-20" value="拷贝生成好的zip包，&#10;到指定目录下" style="rounded=1;" parent="1" vertex="1">
                    <mxGeometry x="-245" y="720" width="120" height="30" as="geometry"/>
                </mxCell>
                <mxCell id="g04I9ooyGlMb0G9ya7TG-14" value="" style="edgeStyle=orthogonalEdgeStyle;rounded=0;orthogonalLoop=1;jettySize=auto;exitX=0.5;exitY=1;exitDx=0;exitDy=0;entryX=0.5;entryY=0;entryDx=0;entryDy=0;" parent="1" source="g04I9ooyGlMb0G9ya7TG-10" target="-oE4xWbNMbVdAoyDmLNe-4" edge="1">
                    <mxGeometry relative="1" as="geometry"/>
                </mxCell>
                <mxCell id="g04I9ooyGlMb0G9ya7TG-10" value="git操作&#10;push" style="rounded=1;" parent="1" vertex="1">
                    <mxGeometry x="-245" y="620" width="120" height="30" as="geometry"/>
                </mxCell>
            </root>
        </mxGraphModel>
    </diagram>
</mxfile>